<?xml version="1.0" encoding="utf-8"?>
<!-- Generator: Adobe Illustrator 23.0.3, SVG Export Plug-In . SVG Version: 6.00 Build 0)  -->
<svg version="1.1" id="Layer_1" xmlns="http://www.w3.org/2000/svg" xmlns:xlink="http://www.w3.org/1999/xlink" x="0px" y="0px"
	 viewBox="0 0 550.5 372.3" style="enable-background:new 0 0 550.5 372.3;" xml:space="preserve">
<style type="text/css">
	.st0{fill:none;stroke:#2d2d2d;stroke-miterlimit:10;}
	.st1{fill:#e4772b;stroke:#2d2d2d;stroke-miterlimit:10;}
	.st2{fill:#4669a3;stroke:#2d2d2d;stroke-miterlimit:10;}
	.st3{fill:#639a74;stroke:#2d2d2d;stroke-miterlimit:10;}
	.st4{fill:none;stroke:#2d2d2d;stroke-miterlimit:10;}
	.st5{fill:#2d2d2d;stroke:#2d2d2d;stroke-miterlimit:10;}
</style>
<circle class="st0" cx="45.3" cy="50.1" r="33.5"/>
<circle class="st0" cx="112.2" cy="50.1" r="33.5"/>
<circle class="st0" cx="179.1" cy="50.1" r="33.5"/>
<circle class="st0" cx="246" cy="50.1" r="33.5"/>
<circle class="st0" cx="45.3" cy="117" r="33.5"/>
<circle class="st1" cx="112.2" cy="117" r="33.5"/>
<circle class="st0" cx="179.1" cy="117" r="33.5"/>
<circle class="st2" cx="246" cy="117" r="33.5"/>
<circle class="st0" cx="45.3" cy="183.9" r="33.5"/>
<circle class="st0" cx="112.2" cy="183.9" r="33.5"/>
<circle class="st0" cx="179.1" cy="183.9" r="33.5"/>
<circle class="st0" cx="246" cy="183.9" r="33.5"/>
<circle class="st0" cx="45.3" cy="250.8" r="33.5"/>
<circle class="st0" cx="112.2" cy="250.8" r="33.5"/>
<circle class="st3" cx="179.1" cy="250.8" r="33.5"/>
<circle class="st0" cx="246" cy="250.8" r="33.5"/>
<circle class="st0" cx="45.3" cy="317.7" r="33.5"/>
<circle class="st4" cx="112.2" cy="317.7" r="33.5"/>
<circle class="st0" cx="179.1" cy="317.7" r="33.5"/>
<circle class="st0" cx="246" cy="317.7" r="33.5"/>
<circle class="st0" cx="312.9" cy="50.1" r="33.5"/>
<circle class="st3" cx="379.8" cy="50.1" r="33.5"/>
<circle class="st0" cx="446.7" cy="50.1" r="33.5"/>
<circle class="st0" cx="513.6" cy="50.1" r="33.5"/>
<circle class="st0" cx="312.9" cy="117" r="33.5"/>
<circle class="st0" cx="379.8" cy="117" r="33.5"/>
<circle class="st0" cx="446.7" cy="117" r="33.5"/>
<circle class="st5" cx="513.6" cy="117" r="33.5"/>
<circle class="st4" cx="312.9" cy="183.9" r="33.5"/>
<circle class="st0" cx="379.8" cy="183.9" r="33.5"/>
<circle class="st0" cx="446.7" cy="183.9" r="33.5"/>
<circle class="st0" cx="513.6" cy="183.9" r="33.5"/>
<circle class="st0" cx="312.9" cy="250.8" r="33.5"/>
<circle class="st0" cx="379.8" cy="250.8" r="33.5"/>
<circle class="st1" cx="446.7" cy="250.8" r="33.5"/>
<circle class="st0" cx="513.6" cy="250.8" r="33.5"/>
<circle class="st0" cx="312.9" cy="317.7" r="33.5"/>
<circle class="st2" cx="379.8" cy="317.7" r="33.5"/>
<circle class="st0" cx="446.7" cy="317.7" r="33.5"/>
<circle class="st0" cx="513.6" cy="317.7" r="33.5"/>
</svg>
